<?xml version="1.0" encoding="UTF-8"?>
<svg xmlns="http://www.w3.org/2000/svg" xmlns:xlink="http://www.w3.org/1999/xlink" width="20px" height="20px" viewBox="0 0 20 20" version="1.1">
<g id="surface1">
<path style=" stroke:none;fill-rule:nonzero;fill:rgb(0%,0%,0%);fill-opacity:1;" d="M 10 0 C 4.476562 0 0 4.476562 0 10 C 0 15.523438 4.476562 20 10 20 C 15.523438 20 20 15.523438 20 10 C 19.992188 4.480469 15.519531 0.0078125 10 0 Z M 18.332031 10 C 18.335938 11.632812 17.851562 13.230469 16.949219 14.589844 L 15.953125 13.597656 C 15.878906 13.519531 15.832031 13.410156 15.832031 13.300781 L 15.832031 12.5 C 15.832031 11.121094 14.714844 10 13.332031 10 L 10.832031 10 C 10.375 10 10 9.625 10 9.167969 L 10 8.75 C 10 8.519531 10.1875 8.332031 10.417969 8.332031 C 11.566406 8.332031 12.5 7.402344 12.5 6.25 L 12.5 5.417969 C 12.5 5.1875 12.6875 5 12.917969 5 L 14.066406 5 C 14.617188 5 15.148438 4.777344 15.539062 4.390625 L 15.851562 4.074219 C 17.441406 5.636719 18.335938 7.773438 18.332031 10 Z M 1.707031 10.800781 L 4.339844 13.433594 C 4.808594 13.90625 5.445312 14.167969 6.109375 14.167969 L 8.332031 14.167969 C 8.792969 14.167969 9.167969 14.539062 9.167969 15 L 9.167969 18.289062 C 5.214844 17.886719 2.09375 14.753906 1.707031 10.800781 Z M 10.832031 18.289062 L 10.832031 15 C 10.832031 13.621094 9.714844 12.5 8.332031 12.5 L 6.109375 12.5 C 5.886719 12.5 5.675781 12.414062 5.515625 12.253906 L 1.800781 8.539062 C 2.285156 5.785156 4.121094 3.460938 6.6875 2.351562 C 9.253906 1.238281 12.207031 1.492188 14.546875 3.023438 L 14.359375 3.210938 C 14.28125 3.289062 14.175781 3.332031 14.066406 3.332031 L 12.917969 3.332031 C 11.765625 3.332031 10.832031 4.265625 10.832031 5.417969 L 10.832031 6.25 C 10.832031 6.480469 10.648438 6.667969 10.417969 6.667969 C 9.265625 6.667969 8.332031 7.597656 8.332031 8.75 L 8.332031 9.167969 C 8.332031 10.546875 9.453125 11.667969 10.832031 11.667969 L 13.332031 11.667969 C 13.792969 11.667969 14.167969 12.039062 14.167969 12.5 L 14.167969 13.300781 C 14.167969 13.855469 14.386719 14.382812 14.777344 14.773438 L 15.890625 15.886719 C 14.535156 17.25 12.746094 18.097656 10.832031 18.289062 Z M 10.832031 18.289062 "/>
</g>
</svg>
